# xmcd CD database file
#
# Track frame offsets:
#	150
#	16475
#	34784
#	88108
#	113411
#	144067
#	159922
#	173809
#	206472
#	225033
#	232768
#
# Disc length: 3474 seconds
#
# Revision: 0
# Processed by: cddbd v1.5.2PL0 Copyright (c) Steve Scherf et al.
# Submitted via: CDex 1.75
#
DISCID=6c0d900b
DTITLE=Darryl Harper - The Need's Got To Be So Deep Disc 2
DYEAR=2014
DGENRE=Jazz
TTITLE0=Blue Light Lounge Sutra 
TTITLE1=Postures 
TTITLE2=Anthem for Unity 
TTITLE3=Water Pistol
TTITLE4=Playtime 
TTITLE5=Dances for Outcasts - Prodigal Son
TTITLE6=The Fugitive
TTITLE7=Prelude and Fugue Like
TTITLE8=Woodwind Quintet - Bach Corral
TTITLE9=Pandeirinho
TTITLE10=Penthex
EXTD=YEAR: 2014
EXTT0=
EXTT1=
EXTT2=
EXTT3=
EXTT4=
EXTT5=
EXTT6=
EXTT7=
EXTT8=
EXTT9=
EXTT10=
PLAYORDER=
